<svg xmlns="http://www.w3.org/2000/svg" viewBox="0 0 100 300">
  <g transform="translate(100, 0) rotate(90)">
    <defs>
      <linearGradient id="hull" x1="0" y1="0" x2="0" y2="1"><stop offset="0%" stop-color="#5a7a8a"/><stop offset="35%" stop-color="#3a5a6a"/><stop offset="100%" stop-color="#1a2a3a"/></linearGradient>
      <linearGradient id="fin" x1="0" y1="0" x2="0" y2="1"><stop offset="0%" stop-color="#6a8a9a"/><stop offset="100%" stop-color="#2a4a5a"/></linearGradient>
      <radialGradient id="light" cx="50%" cy="50%" r="50%"><stop offset="0%" stop-color="#4fc3f7"/><stop offset="100%" stop-color="#0277bd"/></radialGradient>
    </defs>
    <rect x="0" y="20" width="300" height="50" fill="#0d1445" opacity="0.4"/>
    <ellipse cx="150" cy="52" rx="120" ry="18" fill="url(#hull)"/>
    <path d="M32 52 Q32 34 50 28 L250 28 Q268 34 268 52" fill="url(#hull)"/>
    <rect x="100" y="16" width="70" height="16" rx="4" fill="url(#fin)"/>
    <rect x="112" y="8" width="14" height="10" rx="2" fill="#5a7a8a"/>
    <rect x="140" y="8" width="14" height="10" rx="2" fill="#5a7a8a"/>
    <rect x="116" y="10" width="4" height="6" fill="#8a9aa4" opacity="0.5"/>
    <rect x="144" y="10" width="4" height="6" fill="#8a9aa4" opacity="0.5"/>
    <rect x="220" y="44" width="28" height="8" rx="1.5" fill="#3a5a6a"/>
    <path d="M234 48 L258 48 L254 54 L238 54 Z" fill="#4a6a7a"/>
    <circle cx="50" cy="52" r="5" fill="url(#light)" opacity="0.6"/>
    <circle cx="80" cy="52" r="5" fill="url(#light)" opacity="0.6"/>
    <circle cx="110" cy="52" r="5" fill="url(#light)" opacity="0.6"/>
    <circle cx="140" cy="52" r="5" fill="url(#light)" opacity="0.6"/>
    <circle cx="170" cy="52" r="5" fill="url(#light)" opacity="0.6"/>
    <rect x="60" y="64" width="24" height="5" rx="1" fill="#1a2a3a"/>
    <rect x="100" y="64" width="24" height="5" rx="1" fill="#1a2a3a"/>
    <rect x="140" y="64" width="24" height="5" rx="1" fill="#1a2a3a"/>
    <rect x="180" y="64" width="24" height="5" rx="1" fill="#1a2a3a"/>
    <path d="M20 72 Q50 68 80 72 Q120 76 160 72 Q200 68 240 72 Q270 75 280 72" fill="none" stroke="#4fc3f7" stroke-width="0.8" opacity="0.15"/>
  </g>
</svg>
